<?xml version="1.0" standalone="no"?>
<!DOCTYPE svg PUBLIC "-//W3C//DTD SVG 20010904//EN"
 "http://www.w3.org/TR/2001/REC-SVG-20010904/DTD/svg10.dtd">
<svg version="1.0" xmlns="http://www.w3.org/2000/svg"
 width="512.000000pt" height="512.000000pt" viewBox="0 0 512.000000 512.000000"
 preserveAspectRatio="xMidYMid meet">

<g transform="translate(0.000000,512.000000) scale(0.100000,-0.100000)"
fill="#49d1ba" stroke="none">
<path d="M2180 5111 c-71 -23 -122 -66 -156 -131 -26 -51 -25 -152 3 -206 24
-44 79 -98 112 -109 20 -6 21 -14 21 -150 0 -122 3 -146 18 -163 9 -11 81 -68
160 -126 l142 -107 0 -259 0 -260 -80 0 -80 0 0 175 c0 173 0 176 -25 200 -23
24 -29 25 -168 25 l-145 0 -12 30 c-28 68 -129 130 -210 130 -124 0 -240 -116
-240 -240 0 -124 116 -240 240 -240 81 0 182 62 210 130 l12 30 89 0 89 0 0
-120 0 -120 -56 0 c-87 0 -133 -18 -189 -75 -57 -56 -75 -102 -75 -189 l0 -56
-175 0 c-173 0 -176 0 -200 -25 -33 -32 -33 -78 0 -110 24 -25 27 -25 200 -25
l175 0 0 -80 0 -80 -255 0 -256 0 -24 -25 c-33 -32 -33 -78 0 -110 l24 -25
256 0 255 0 0 -80 0 -80 -95 0 c-88 0 -98 -2 -120 -25 -33 -32 -33 -78 0 -110
22 -23 32 -25 120 -25 l95 0 0 -56 c0 -87 18 -133 75 -189 56 -57 102 -75 189
-75 l56 0 0 -175 c0 -173 0 -176 25 -200 15 -16 36 -25 55 -25 19 0 40 9 55
25 25 24 25 27 25 200 l0 175 80 0 80 0 0 -255 0 -256 25 -24 c32 -33 78 -33
110 0 l25 24 0 256 0 255 80 0 80 0 0 -95 c0 -88 2 -98 25 -120 32 -33 78 -33
110 0 23 22 25 32 25 120 l0 95 56 0 c87 0 133 18 189 75 47 47 75 102 75 149
0 14 16 16 129 16 l129 0 12 -30 c17 -42 90 -104 138 -118 91 -28 167 -8 237
63 54 53 75 102 75 171 0 36 9 47 160 199 140 142 160 165 160 194 0 37 -38
81 -70 81 -37 0 -62 -19 -201 -157 l-136 -135 -44 23 c-60 32 -157 32 -215 2
-44 -24 -98 -79 -109 -112 -6 -20 -14 -21 -136 -21 l-129 0 0 320 0 320 169 0
169 0 12 -30 c18 -44 92 -105 145 -120 52 -15 130 -8 173 14 137 71 173 251
75 366 -52 60 -104 84 -183 84 -47 0 -76 -6 -106 -21 -44 -24 -98 -79 -109
-112 -6 -20 -13 -21 -176 -21 -150 0 -169 2 -169 16 0 65 -69 169 -130 194
l-30 12 0 98 0 98 30 12 c68 28 130 129 130 210 0 81 -62 182 -130 210 -24 10
-30 18 -30 44 0 27 24 55 189 220 l189 189 32 -12 c144 -50 310 73 310 229 0
125 -114 240 -238 240 -152 0 -272 -153 -232 -299 l12 -44 -200 -201 c-110
-111 -205 -211 -211 -223 -6 -12 -11 -46 -11 -77 0 -46 -3 -56 -21 -61 -33
-11 -88 -65 -112 -109 -30 -57 -30 -155 0 -212 24 -44 79 -98 112 -109 19 -6
21 -14 21 -96 l0 -89 -160 0 -160 0 0 294 c0 266 -2 296 -17 314 -10 11 -82
68 -160 126 l-143 107 0 108 c0 105 1 109 23 115 36 9 105 84 122 134 51 152
-50 306 -209 318 -28 2 -62 0 -76 -5z m115 -176 c50 -49 15 -135 -55 -135 -41
0 -80 39 -80 80 0 41 39 80 80 80 19 0 40 -9 55 -25z m1360 0 c16 -15 25 -36
25 -55 0 -19 -9 -40 -25 -55 -15 -16 -36 -25 -55 -25 -19 0 -40 9 -55 25 -16
15 -25 36 -25 55 0 19 9 40 25 55 15 16 36 25 55 25 19 0 40 -9 55 -25z m-560
-880 c16 -15 25 -36 25 -55 0 -19 -9 -40 -25 -55 -15 -16 -36 -25 -55 -25 -19
0 -40 9 -55 25 -16 15 -25 36 -25 55 0 19 9 40 25 55 15 16 36 25 55 25 19 0
40 -9 55 -25z m-1280 -80 c50 -49 15 -135 -55 -135 -41 0 -80 39 -80 80 0 41
39 80 80 80 19 0 40 -9 55 -25z m1280 -560 l25 -24 0 -511 0 -511 -25 -24 -24
-25 -511 0 -511 0 -24 25 -25 24 0 511 0 511 25 24 24 25 511 0 511 0 24 -25z
m800 -80 c16 -15 25 -36 25 -55 0 -19 -9 -40 -25 -55 -15 -16 -36 -25 -55 -25
-19 0 -40 9 -55 25 -16 15 -25 36 -25 55 0 19 9 40 25 55 15 16 36 25 55 25
19 0 40 -9 55 -25z m-80 -800 c50 -49 15 -135 -55 -135 -41 0 -80 39 -80 80 0
41 39 80 80 80 19 0 40 -9 55 -25z"/>
<path d="M2185 3255 c-16 -15 -25 -36 -25 -55 0 -19 9 -40 25 -55 l24 -25 296
0 295 0 0 -135 c0 -131 1 -137 25 -160 15 -16 36 -25 55 -25 19 0 40 9 55 25
25 24 25 26 25 215 0 189 0 191 -25 215 l-24 25 -351 0 -351 0 -24 -25z"/>
<path d="M2185 2935 c-25 -24 -25 -26 -25 -215 0 -189 0 -191 25 -215 l24 -25
351 0 351 0 24 25 c33 32 33 78 0 110 l-24 25 -296 0 -295 0 0 135 c0 131 -1
137 -25 160 -15 16 -36 25 -55 25 -19 0 -40 -9 -55 -25z"/>
<path d="M2505 2935 c-50 -49 -15 -135 55 -135 19 0 40 9 55 25 16 15 25 36
25 55 0 19 -9 40 -25 55 -15 16 -36 25 -55 25 -19 0 -40 -9 -55 -25z"/>
<path d="M1763 4596 c-478 -233 -854 -664 -1021 -1171 -62 -187 -102 -423
-102 -601 l0 -81 -224 -335 c-170 -254 -229 -350 -242 -394 -43 -149 28 -307
171 -382 44 -23 64 -27 172 -30 l122 -4 3 -327 c3 -295 5 -331 23 -374 45
-109 145 -203 254 -237 57 -18 92 -20 372 -20 l309 0 0 -295 0 -296 25 -24 24
-25 991 0 991 0 24 25 25 24 0 320 0 320 153 178 c310 362 399 487 527 748
102 208 109 228 89 263 -8 15 -26 33 -41 41 -24 14 -30 14 -60 -1 -26 -12 -39
-29 -57 -74 -39 -96 -129 -270 -187 -365 -84 -136 -160 -233 -381 -492 l-203
-237 0 -295 0 -295 -880 0 -880 0 0 240 0 239 408 3 407 3 57 28 c31 15 72 45
92 67 43 47 156 269 156 305 0 54 -70 92 -121 65 -11 -6 -46 -64 -78 -128 -61
-121 -86 -153 -134 -171 -19 -8 -274 -11 -786 -11 -862 0 -819 -4 -894 80 -24
26 -49 66 -55 88 -8 27 -12 147 -12 385 0 190 -3 353 -6 362 -14 35 -58 45
-204 45 -122 0 -146 3 -181 20 -64 33 -99 110 -84 180 4 18 112 191 241 384
l234 351 0 98 c0 524 229 1036 617 1380 111 99 266 203 404 273 63 31 115 64
125 79 32 48 -6 115 -66 115 -15 0 -67 -20 -117 -44z"/>
<path d="M3760 4387 c-49 -16 -133 -102 -148 -153 -28 -94 -8 -169 63 -240 56
-56 118 -80 184 -71 l40 5 93 -141 c128 -194 118 -187 243 -187 l103 0 12 -30
c17 -42 90 -104 138 -118 91 -28 167 -8 237 63 102 101 102 229 0 330 -70 71
-146 91 -237 63 -48 -14 -121 -76 -138 -118 -12 -29 -14 -30 -80 -30 l-67 0
-85 128 -85 127 24 50 c43 94 26 183 -52 260 -70 71 -152 91 -245 62z m135
-172 c16 -15 25 -36 25 -55 0 -19 -9 -40 -25 -55 -15 -16 -36 -25 -55 -25 -19
0 -40 9 -55 25 -16 15 -25 36 -25 55 0 19 9 40 25 55 15 16 36 25 55 25 19 0
40 -9 55 -25z m720 -480 c16 -15 25 -36 25 -55 0 -19 -9 -40 -25 -55 -15 -16
-36 -25 -55 -25 -19 0 -40 9 -55 25 -16 15 -25 36 -25 55 0 19 9 40 25 55 15
16 36 25 55 25 19 0 40 -9 55 -25z"/>
<path d="M4640 2867 c-49 -16 -133 -102 -148 -153 -15 -52 -15 -101 -1 -144
l12 -32 -229 -229 -229 -229 -358 0 -358 0 -24 -25 c-24 -23 -25 -29 -25 -168
l0 -145 -30 -12 c-68 -28 -130 -129 -130 -210 0 -124 116 -240 240 -240 124 0
240 116 240 240 0 81 -62 182 -130 210 l-30 12 0 89 0 89 337 0 337 0 252 251
252 252 33 -12 c143 -50 309 73 309 229 0 128 -116 242 -244 239 -22 -1 -57
-6 -76 -12z m135 -172 c16 -15 25 -36 25 -55 0 -19 -9 -40 -25 -55 -15 -16
-36 -25 -55 -25 -19 0 -40 9 -55 25 -16 15 -25 36 -25 55 0 19 9 40 25 55 15
16 36 25 55 25 19 0 40 -9 55 -25z m-1360 -1120 c50 -49 15 -135 -55 -135 -41
0 -80 39 -80 80 0 41 39 80 80 80 19 0 40 -9 55 -25z"/>
</g>
</svg>
