<?xml version="1.0" standalone="no"?>
<!DOCTYPE svg PUBLIC "-//W3C//DTD SVG 20010904//EN"
 "http://www.w3.org/TR/2001/REC-SVG-20010904/DTD/svg10.dtd">
<svg version="1.0" xmlns="http://www.w3.org/2000/svg"
 width="640.000000pt" height="640.000000pt" viewBox="0 0 640.000000 640.000000"
 preserveAspectRatio="xMidYMid meet">

<g transform="translate(0.000000,640.000000) scale(0.100000,-0.100000)"
fill="#000000" stroke="none">brain
<path d="M2900 4694 c-30 -8 -73 -25 -95 -39 -51 -29 -127 -110 -153 -162 -18
-35 -27 -41 -82 -56 -99 -28 -160 -65 -243 -147 -59 -60 -85 -95 -111 -151
-56 -120 -69 -238 -41 -354 l15 -60 -28 -20 c-15 -11 -56 -49 -92 -86 -179
-183 -221 -462 -104 -694 43 -83 110 -165 177 -213 35 -25 46 -39 41 -51 -19
-48 -28 -165 -16 -241 18 -124 65 -215 159 -310 83 -82 144 -119 242 -146 57
-16 63 -21 90 -69 16 -29 56 -75 87 -104 145 -129 352 -132 506 -8 l38 30 38
-30 c154 -124 361 -121 506 8 31 29 71 76 87 105 26 46 35 53 69 59 21 4 71
22 111 41 84 40 212 160 249 234 63 125 84 265 56 380 l-15 65 26 20 c167 125
262 306 263 502 1 199 -93 381 -263 508 l-26 20 15 65 c28 115 7 255 -56 380
-37 74 -165 194 -249 234 -40 19 -90 37 -111 41 -34 6 -43 13 -69 59 -16 29
-56 76 -87 105 -145 129 -352 132 -506 8 l-38 -30 -38 30 c-103 83 -228 110
-352 77z m191 -216 c21 -12 51 -40 66 -62 l28 -41 0 -1175 0 -1175 -28 -41
c-36 -53 -92 -84 -150 -84 -94 0 -154 47 -188 147 -12 38 -30 70 -43 78 -12 8
-55 19 -95 25 -235 33 -372 264 -287 483 36 93 36 94 25 127 -8 22 -31 42 -91
77 -91 54 -145 110 -185 192 -26 51 -28 66 -28 171 0 107 2 119 29 175 17 33
54 84 83 113 143 144 350 147 526 9 18 -14 42 -22 68 -22 34 0 46 6 71 34 63
71 15 152 -135 227 -93 48 -165 64 -278 64 -111 0 -109 -3 -109 107 0 87 31
165 91 229 65 68 129 101 220 114 40 6 83 17 95 25 13 8 31 40 43 78 22 66 64
117 111 136 45 18 119 13 161 -11z m556 11 c49 -18 91 -68 114 -136 25 -76 42
-89 130 -102 97 -13 160 -44 222 -110 66 -69 97 -144 97 -234 0 -109 3 -106
-110 -106 -157 0 -283 -43 -385 -133 -72 -64 -72 -148 2 -183 45 -21 68 -15
148 40 81 55 127 68 235 69 72 0 94 -4 143 -26 73 -34 155 -116 193 -193 27
-56 29 -68 29 -175 0 -108 -2 -119 -30 -175 -38 -76 -112 -151 -191 -193 -65
-34 -100 -82 -88 -119 4 -10 17 -46 30 -80 51 -133 24 -273 -73 -374 -62 -66
-125 -97 -222 -110 -88 -13 -105 -26 -130 -102 -34 -100 -94 -147 -188 -147
-59 0 -123 36 -155 87 l-23 38 0 1175 0 1175 23 37 c46 74 148 108 229 77z"/>
<path d="M2524 3195 c-91 -38 -82 -169 13 -190 127 -29 197 -80 244 -180 24
-50 29 -73 29 -138 0 -76 1 -80 34 -113 40 -40 75 -44 123 -14 53 32 67 125
38 249 -41 174 -186 332 -342 373 -96 26 -107 27 -139 13z"/>
<path d="M3975 3199 c-221 -41 -392 -234 -411 -462 -8 -96 7 -152 49 -177 45
-28 81 -25 119 9 32 28 33 33 38 123 7 111 24 152 95 224 40 42 62 55 110 69
122 34 154 67 141 138 -11 60 -67 90 -141 76z"/>
</g>
</svg>
